PathFileType	4	(X/Y/Z)	4_coords_data.trc
DataRate	CameraRate	NumFrames	NumMarkers	Units	OrigDataRate	OrigDataStartFrame	OrigNumFrames
30.0	30.0	9	21	m	30.0	38	47
Frame#	Time	THUMB_TIP	THUMB_IP	THUMB_MCP	THUMB_CMC	INDEX_TIP	INDEX_DIP	INDEX_PIP	INDEX_MCP	MIDDLE_TIP	MIDDLE_DIP	MIDDLE_PIP	MIDDLE_MCP	RING_TIP	RING_DIP	RING_PIP	RING_MCP	PINKY_TIP	PINKY_DIP	PINKY_PIP	PINKY_MCP	WRIST
X1	Y1	Z1	X2	Y2	Z2	X3	Y3	Z3	X4	Y4	Z4	X5	Y5	Z5	X6	Y6	Z6	X7	Y7	Z7	X8	Y8	Z8	X9	Y9	Z9	X10	Y10	Z10	X11	Y11	Z11	X12	Y12	Z12	X13	Y13	Z13	X14	Y14	Z14	X15	Y15	Z15	X16	Y16	Z16	X17	Y17	Z17	X18	Y18	Z18	X19	Y19	Z19	X20	Y20	Z20	X21	Y21	Z21
37	1.2333333333333334	-0.012088000297546387	-0.10057199859619141	1.06356005859375	-0.02619809913635254	-0.07868090057373046	1.0764100341796874	-0.04877360153198242	-0.06665280151367188	1.0981500244140625	-0.062117599487304685	-0.03224269866943359	1.1088699951171874	-0.000399500995874404	-0.0706759033203125	0.9887009887695313	-0.01969879913330078	-0.0685779037475586	1.0022000122070311	-0.03999779891967774	-0.06530229949951172	1.0184400024414062	-0.06815350341796875	-0.05699850082397461	1.0490400390625	0.0029331901073455812	-0.04193289947509766	0.96914599609375	-0.017672700881958006	-0.03995230102539062	0.9841500244140625	-0.04282080078125	-0.03746540069580078	1.0034099731445312	-0.06874990081787109	-0.03238079833984375	1.039050048828125	0.0009398599863052361	-0.00788311004638672	0.970219970703125	-0.020282899856567383	-0.0067368302345275875	0.9831320190429688	-0.04452199935913086	-0.0068785400390625	1.001010009765625	-0.0630989990234375	-0.008915860176086426	1.0388699951171876	-0.008071009635925292	0.02856599998474121	0.9942969970703125	-0.02598469924926758	0.027639999389648437	1.0043499755859375	-0.04320090103149414	0.02445159912109375	1.0165	-0.05721630096435547	0.014037400245666505	1.0436700439453126	-0.09509889984130859	-0.00497327995300293	1.123800048828125
38	1.2666666666666666	-0.012609600067138672	-0.10085800170898437	1.0648499755859375	-0.02595249938964844	-0.07835240173339844	1.0772099609375	-0.048601299285888674	-0.06586869812011718	1.09868994140625	-0.0619359016418457	-0.03141180038452149	1.10927001953125	-0.000848599016666412	-0.06989600372314453	0.987301025390625	-0.019637800216674803	-0.06757620239257812	1.001719970703125	-0.0393218994140625	-0.06414440155029297	1.0186699829101562	-0.06684950256347656	-0.05587509918212891	1.0496099853515626	0.0024226100444793702	-0.03965480041503906	0.9671859741210938	-0.017302900314331054	-0.03798849868774414	0.9838150024414063	-0.04158259963989258	-0.03581750106811524	1.004260009765625	-0.06752249908447265	-0.031349100112915036	1.0396099853515626	0.00046657198667526204	-0.0051966700553894045	0.9683060302734375	-0.019939800262451172	-0.004639430046081543	0.9830800170898437	-0.04333420181274414	-0.005316589832305908	1.0021099853515625	-0.06214730072021484	-0.007788360118865967	1.039510009765625	-0.00821619987487793	0.03248699951171875	0.9940640258789063	-0.025667200088500975	0.030358299255371094	1.005260009765625	-0.042432998657226564	0.0263351993560791	1.01797998046875	-0.05654249954223633	0.015095800399780273	1.044699951171875	-0.09519770050048829	-0.00433892011642456	1.12418994140625
39	1.3	-0.013475199699401856	-0.10128399658203124	1.0655899658203125	-0.026357200622558592	-0.07830760192871093	1.0778399658203126	-0.048782299041748044	-0.06541999816894531	1.0991500244140624	-0.06201200103759766	-0.030903600692749025	1.1098599853515625	-0.001204200029373169	-0.06916570281982422	0.986593017578125	-0.01963730049133301	-0.06673149871826171	1.0015399780273437	-0.03893840026855469	-0.06324420166015625	1.0189299926757813	-0.06620919799804688	-0.055011199951171874	1.049969970703125	0.0017532199621200562	-0.03801539993286133	0.9658289794921875	-0.01723080062866211	-0.036593299865722656	0.983635986328125	-0.04088079833984375	-0.03464400100708008	1.0049500122070312	-0.0669552001953125	-0.03042970085144043	1.0403900146484375	9.4622999429702e-05	-0.0032511498928070068	0.9672230224609375	-0.019625	-0.003078589916229248	0.9832260131835937	-0.04237229919433594	-0.004105390071868896	1.0030499877929688	-0.061611400604248044	-0.0068523502349853525	1.040260009765625	-0.008308309555053711	0.03543849945068359	0.9942470092773438	-0.025315200805664063	0.03237139892578125	1.0060900268554687	-0.04154999923706055	0.027729799270629883	1.0190399780273438	-0.055923198699951174	0.01591790008544922	1.0454599609375	-0.09530249786376953	-0.0037519299983978273	1.124739990234375
40	1.3333333333333333	-0.014295000076293946	-0.10141500091552734	1.0655899658203125	-0.02660379981994629	-0.0781981964111328	1.0778499755859374	-0.04882870101928711	-0.0650281982421875	1.099300048828125	-0.06199829864501953	-0.030399799346923828	1.1101300048828124	-0.0013013399839401241	-0.06831400299072266	0.986302978515625	-0.019480899810791017	-0.06585639953613281	1.001530029296875	-0.038560100555419925	-0.06237120056152344	1.0191300048828125	-0.06592520141601563	-0.05430970001220703	1.050239990234375	0.001208269953727722	-0.036666900634765624	0.964989990234375	-0.01727790069580078	-0.03546929931640625	0.9835809936523437	-0.04031529998779297	-0.03370479965209961	1.0054500122070313	-0.06642150115966797	-0.029736299514770508	1.0403299560546875	0.00018642799556255302	-0.001985640048980713	0.9667940063476562	-0.019121200561523437	-0.0020631000995635983	0.9834630126953126	-0.041551998138427734	-0.003268029928207397	1.0037000122070312	-0.061251598358154295	-0.006154329776763916	1.0405799560546876	-0.00840719985961914	0.03737929916381836	0.99435400390625	-0.025191600799560548	0.03378340148925781	1.0066500244140626	-0.041212200164794925	0.028757299423217773	1.0199099731445314	-0.055719898223876956	0.016607200622558594	1.0459599609375	-0.0953675994873047	-0.003213299989700317	1.1250400390625
41	1.3666666666666667	-0.014225600242614746	-0.10100900268554687	1.0659200439453125	-0.026547899246215822	-0.07775740051269531	1.0781099853515625	-0.04879750061035156	-0.06456849670410156	1.09943994140625	-0.06199679946899414	-0.02990519905090332	1.110239990234375	-0.001985430002212524	-0.06800769805908204	0.985573974609375	-0.019880699157714843	-0.06543879699707031	1.001260009765625	-0.03865539932250977	-0.06189690017700195	1.0192000122070313	-0.06569180297851562	-0.05380270004272461	1.0503800048828125	0.000247531995177268	-0.035895301818847654	0.9639569702148437	-0.017643400192260742	-0.03481990051269531	0.9832630004882813	-0.04020090103149414	-0.033121200561523435	1.005760009765625	-0.0663104019165039	-0.029267799377441405	1.0406600341796874	3.7794701755046005e-05	-0.001299829959869384	0.966426025390625	-0.01898460006713867	-0.0014797400236129762	0.9835250244140625	-0.04112260055541992	-0.002755219936370849	1.003969970703125	-0.06113059997558594	-0.005659180164337158	1.0408499755859375	-0.008463159561157226	0.03820040130615234	0.9944080200195312	-0.02513159942626953	0.034420799255371094	1.0068599853515625	-0.0410452995300293	0.029278200149536134	1.0202000122070312	-0.05564569854736328	0.017153099060058595	1.0460699462890626	-0.09552850341796874	-0.002875159978866577	1.1253299560546874
42	1.4	-0.014520899772644043	-0.10103299713134765	1.0661400146484374	-0.026746700286865235	-0.07773699951171875	1.07822998046875	-0.04898310089111328	-0.06438690185546875	1.099469970703125	-0.06204949951171875	-0.029801799774169923	1.1101199951171874	-0.002636100053787231	-0.06831500244140624	0.9850809936523437	-0.020290500640869142	-0.06557479858398438	1.0010599975585937	-0.03881230163574219	-0.061874900817871094	1.01925	-0.06568070220947266	-0.05363479995727539	1.0504599609375	-0.00018458700180053701	-0.035737598419189456	0.9634650268554688	-0.017707500457763672	-0.034646598815917966	0.98322802734375	-0.03999499893188477	-0.03300659942626953	1.0059199829101562	-0.0662260971069336	-0.029106300354003908	1.04075	-0.00021273800730705204	-0.001298900008201599	0.9659329833984375	-0.018961599349975586	-0.001525629997253418	0.9834140014648437	-0.04083520126342773	-0.002806169986724853	1.0041400146484376	-0.06106999969482422	-0.005541659832000732	1.0408900146484374	-0.008916540145874024	0.03855699920654297	0.9938469848632813	-0.02529010009765625	0.034645999908447266	1.0067100219726564	-0.04100949859619141	0.029430700302124024	1.0201400146484374	-0.05561809921264648	0.017272199630737305	1.046030029296875	-0.09561370086669922	-0.002702630043029785	1.1251099853515625
43	1.4333333333333333	-0.014932100296020507	-0.10126100158691406	1.066	-0.026996999740600585	-0.07786769866943359	1.0780699462890626	-0.04927410125732422	-0.06440489959716797	1.099469970703125	-0.06232350158691406	-0.02978339958190918	1.1100699462890624	-0.0024356000423431394	-0.06813269805908204	0.9851790161132813	-0.02007939910888672	-0.06545909881591797	1.0010800170898437	-0.03866180038452149	-0.06179769897460938	1.0191900024414062	-0.06570259857177735	-0.053655498504638674	1.050280029296875	0.00042740398645401003	-0.03554880142211914	0.9638709716796875	-0.017139400482177734	-0.034531898498535156	0.983572021484375	-0.03953329849243164	-0.03292340087890625	1.0060599975585938	-0.06615380096435547	-0.029113000869750976	1.040530029296875	1.1762299574911e-05	-0.001178009986877441	0.9659240112304688	-0.018712699890136717	-0.001467939972877502	0.9834879760742188	-0.0406260986328125	-0.002792979955673217	1.0041799926757813	-0.06124020004272461	-0.00553341007232666	1.0408199462890626	-0.00892191982269287	0.038627498626708986	0.9938489990234375	-0.02536490058898926	0.034704200744628905	1.0065900268554688	-0.04108150100708008	0.02943470001220703	1.0200399780273437	-0.05578070068359375	0.01725029945373535	1.04593994140625	-0.0959051971435547	-0.0026651499271392824	1.124989990234375
44	1.4666666666666666	-0.014711899757385254	-0.10119599914550781	1.0660400390625	-0.02679249954223633	-0.077902099609375	1.077969970703125	-0.04920690155029297	-0.06445210266113281	1.099239990234375	-0.062353900909423825	-0.02987730026245117	1.1099000244140624	-0.002432369947433471	-0.06818240356445313	0.9849359741210938	-0.020110000610351564	-0.06550579833984375	1.0008599853515625	-0.038651798248291014	-0.06188000106811523	1.0189600219726562	-0.06566950225830079	-0.05375320053100586	1.0500999755859375	0.00042102301120758003	-0.035489101409912106	0.9636290283203125	-0.0171205997467041	-0.03455279922485351	0.98335400390625	-0.0393385009765625	-0.03299380111694336	1.005989990234375	-0.06617070007324219	-0.029221399307250977	1.0404100341796876	7.0992097258567e-05	-0.0011807099580764771	0.9657659912109375	-0.018581199645996093	-0.001528699994087219	0.9833839721679688	-0.04044369888305664	-0.002914429903030395	1.0040800170898438	-0.06127069854736328	-0.00563463020324707	1.0406300048828125	-0.009020910263061524	0.038584701538085936	0.9937760009765625	-0.025505800247192383	0.03462829971313477	1.0064299926757811	-0.041265701293945314	0.029349599838256836	1.0198699951171875	-0.05591669845581055	0.017256399154663087	1.045719970703125	-0.09614320373535157	-0.002809570074081421	1.1248399658203125
45	1.5	-0.014078399658203126	-0.10086699676513672	1.0658599853515625	-0.026524799346923828	-0.07765380096435547	1.0778299560546876	-0.04888970184326172	-0.06444300079345704	1.0991199951171875	-0.062322898864746096	-0.029824899673461913	1.10968994140625	-0.002748719930648803	-0.06823889923095704	0.9844110107421875	-0.0203474006652832	-0.06562539672851563	1.0005	-0.03882099914550781	-0.06202170181274414	1.0187000122070313	-0.06574160003662109	-0.05394440078735351	1.0500400390625	0.000223409995436668	-0.035538700103759764	0.9632760009765625	-0.01715929985046387	-0.03461640167236328	0.9832130126953125	-0.03934170150756836	-0.03310160064697266	1.0059000244140626	-0.06619879913330078	-0.029386899948120118	1.04022998046875	-9.979049675166001e-06	-0.001512169957160949	0.9653809814453125	-0.018589399337768556	-0.0018583899736404421	0.9831110229492187	-0.04038629913330078	-0.003221549987792968	1.003989990234375	-0.061391998291015625	-0.005811870098114014	1.040530029296875	-0.009255319595336915	0.03816469955444336	0.9933330078125	-0.025671300888061525	0.03426259994506836	1.0060800170898438	-0.04145600128173828	0.029078500747680664	1.01952001953125	-0.056157798767089845	0.017097299575805663	1.04552001953125	-0.09622830200195312	-0.002931809902191162	1.1246300048828124
